<?xml version="1.0" encoding="UTF-8" standalone="no"?>
<svg
   xmlns:dc="http://purl.org/dc/elements/1.1/"
   xmlns:cc="http://creativecommons.org/ns#"
   xmlns:rdf="http://www.w3.org/1999/02/22-rdf-syntax-ns#"
   xmlns:svg="http://www.w3.org/2000/svg"
   xmlns="http://www.w3.org/2000/svg"
   width="550"
   height="550"
   viewBox="0 0 550 550"
   version="1.1"
   id="svg8">
  <defs id="defs2">
    <mask maskUnits="userSpaceOnUse" id="mask941">
      <rect style="opacity:1;fill:#ffffff;fill-opacity:1;stroke:none;stroke-width:1.1768322;stroke-linecap:round;stroke-linejoin:round;stroke-miterlimit:4;stroke-dasharray:4.70732928, 4.70732928;stroke-dashoffset:0;stroke-opacity:1;paint-order:markers fill stroke"
         id="rect943"
         width="48"
         height="48"
         x="-240"
         y="780"
         transform="rotate(-45)" />
    </mask>
    <mask maskUnits="userSpaceOnUse" id="mask945">
      <rect y="780"
         x="-704"
         height="48"
         width="48"
         id="rect947"
         style="opacity:1;fill:#ffffff;fill-opacity:1;stroke:none;stroke-width:1.1768322;stroke-linecap:round;stroke-linejoin:round;stroke-miterlimit:4;stroke-dasharray:4.70732928, 4.70732928;stroke-dashoffset:0;stroke-opacity:1;paint-order:markers fill stroke"
         transform="rotate(-45)" />
    </mask>
    <mask maskUnits="userSpaceOnUse" id="mask2036">
      <path style="fill:#ffffff;fill-opacity:1;stroke:none;stroke-width:1px;stroke-linecap:butt;stroke-linejoin:miter;stroke-opacity:1"
         d="M 144.24978,777.81746 53.740115,687.30779 202.35943,663.7698 Z"
         id="path2038" />
    </mask>
  </defs>
  <metadata id="metadata5">
    <rdf:RDF>
      <cc:Work rdf:about="">
        <dc:format>image/svg+xml</dc:format>
        <dc:type rdf:resource="http://purl.org/dc/dcmitype/StillImage" />
        <dc:title></dc:title>
      </cc:Work>
    </rdf:RDF>
  </metadata>
  <!-- Oklahoma Outline (with non-blue stroke) -->
  <!--
       The outline is positioned by first subtracting the polygon’s minimum coordinates,
       then scaling it to a width of approximately 500px, and finally translating it
       so its center appears behind the hammer and sickle.
  -->
  <g id="oklahoma-outline"
     transform="translate(25.1,144.6) scale(1.52439) translate(-1527.6997,-50.099609)"
     style="fill:none;stroke:#000000;stroke-width:8;stroke-miterlimit:3.863693;">
    <polygon points="1692.499,198.89893 1687.6987,189.29883 1682.8989,192.49902 1671.6992,189.29883 1668.499,186.09912 1663.6992,190.89893 1647.6992,181.29883 1646.0991,174.89893 1646.0991,77.299805 1527.6997,77.299805 1527.6997,50.099609 1838.0981,50.099609 1838.0981,70.899902 1855.6982,133.29932 1855.6982,219.69873 1828.498,210.09912 1810.8982,214.89893 1801.2983,221.29883 1778.8984,210.09912 1764.4985,218.09912 1748.4985,208.49902 1738.8984,211.69873 1730.8987,206.89893 1721.2988,211.69873 1692.499,198.89893" />
  </g>
  <!-- Hammer and Sickle (Gold) -->
  <g style="fill:#ffd700;fill-opacity:1" id="layer1" transform="scale(0.69) translate(200,-750)">
    <path style="opacity:1;fill:#ffd700;fill-opacity:1;stroke:none;stroke-width:17.78477097;stroke-linecap:round;stroke-linejoin:round;stroke-miterlimit:4;stroke-dasharray:none;stroke-dashoffset:0;stroke-opacity:1;paint-order:markers fill stroke"
       d="m 157.54301,922.36336 -16.97149,16.9707 -45.256019,45.2539 -56.570993,56.57034 62.227502,62.2246 56.571,-56.5684 299.82842,299.8124 a 32.001491,31.999993 0 0 0 45.25601,0 32.001491,31.999993 0 0 0 0,-45.2539 l -299.82646,-299.8143 16.9715,-16.97074 50.91448,-50.91015 z"
       id="path1492" />
    <path style="opacity:1;fill:#ffd700;fill-opacity:1;stroke:none;stroke-width:0.86488503;stroke-linecap:round;stroke-linejoin:round;stroke-miterlimit:4;stroke-dasharray:none;stroke-dashoffset:0;stroke-opacity:1;paint-order:markers fill stroke"
       d="m 255.989,844.0001 c 0,0 168.00781,127.99997 168.00783,256 C 423.99684,1164 367.99425,1236 271.98975,1236 c -64.00296,0 -104.24119,-47.7637 -104.24119,-47.7637 l -11.31302,11.3125 a 16.000745,15.999996 0 0 0 -22.62801,0 16.000745,15.999996 0 0 0 -2.47863,3.2227 32.001491,31.999993 0 0 0 -31.464359,8.0918 32.001491,31.999993 0 0 0 -9.330512,21.5449 C 65.101725,1246.1605 22.969246,1272.9834 4.2643862,1308 l 0.029298,0.029 A 32.001491,31.999993 0 0 0 4.2643862,1340 32.001491,31.999993 0 0 0 47.979313,1351.7129 c 35.025561,-18.708 61.854737,-60.8518 75.605087,-86.2813 a 32.001491,31.999993 0 0 0 21.53616,-9.3144 32.001491,31.999993 0 0 0 7.93201,-13.2012 c 24.51647,23.0544 71.44493,57.084 134.93792,57.084 96.00451,0 200.00932,-72 200.00932,-199.9999 0,-160.00002 -232.01081,-256 -232.01081,-256 z"
       id="path1514" />
  </g>
</svg>
